<svg xmlns="http://www.w3.org/2000/svg" width="128" height="128" viewBox="0 0 128 128" role="img" aria-labelledby="title desc">
  <title id="title">Save snapshot icon</title>
  <desc id="desc">Floppy disk icon representing saving the court room session</desc>
  <g fill="none" stroke="none" stroke-width="1">
    <rect x="8" y="8" width="112" height="112" rx="12" fill="#1f2937"/>
    <path d="M32 20h52l24 24v60a12 12 0 0 1-12 12H32a12 12 0 0 1-12-12V32a12 12 0 0 1 12-12z" fill="#374151"/>
    <rect x="44" y="20" width="36" height="26" rx="4" fill="#60a5fa"/>
    <path d="M96 76v32H32V76c0-6.627 5.373-12 12-12h40c6.627 0 12 5.373 12 12z" fill="#fbbf24"/>
    <rect x="44" y="84" width="40" height="16" rx="4" fill="#1f2937"/>
    <path d="M68 20h12v22H68z" fill="#1f2937"/>
    <path d="M40 56h48c4.418 0 8 3.582 8 8v44H32V64c0-4.418 3.582-8 8-8z" fill="#2563eb" opacity="0.5"/>
  </g>
</svg>
