<svg xmlns="http://www.w3.org/2000/svg" width="1200" height="800" viewBox="0 0 1200 800" role="img" aria-labelledby="title desc">
  <title id="title">Court room and desk illustration</title>
  <desc id="desc">Simplified illustration of a courtroom with judge bench, desks, and wall panels.</desc>
  <defs>
    <linearGradient id="wall" x1="0%" x2="0%" y1="0%" y2="100%">
      <stop offset="0%" stop-color="#f2e7d5" />
      <stop offset="100%" stop-color="#dec9a5" />
    </linearGradient>
    <linearGradient id="floor" x1="0%" x2="0%" y1="0%" y2="100%">
      <stop offset="0%" stop-color="#d2a679" />
      <stop offset="100%" stop-color="#9c6c3c" />
    </linearGradient>
    <linearGradient id="desk" x1="0%" x2="0%" y1="0%" y2="100%">
      <stop offset="0%" stop-color="#c2874a" />
      <stop offset="100%" stop-color="#8a5523" />
    </linearGradient>
  </defs>
  <rect width="1200" height="520" fill="url(#wall)" />
  <rect y="520" width="1200" height="280" fill="url(#floor)" />
  <rect x="180" y="80" width="840" height="200" fill="#b67a3b" />
  <rect x="220" y="120" width="760" height="140" fill="#754c24" />
  <rect x="160" y="320" width="880" height="160" fill="url(#desk)" />
  <rect x="220" y="360" width="240" height="120" fill="#6f3e15" />
  <rect x="520" y="360" width="160" height="120" fill="#6f3e15" />
  <rect x="740" y="360" width="240" height="120" fill="#6f3e15" />
  <circle cx="600" cy="200" r="36" fill="#f8f1e4" opacity="0.6" />
  <rect x="250" y="140" width="120" height="60" fill="#d9c19b" />
  <rect x="430" y="140" width="120" height="60" fill="#d9c19b" />
  <rect x="610" y="140" width="120" height="60" fill="#d9c19b" />
  <rect x="790" y="140" width="120" height="60" fill="#d9c19b" />
  <rect x="420" y="520" width="360" height="140" fill="#5d3415" opacity="0.7" />
  <rect x="440" y="540" width="320" height="100" fill="#8a4b1d" />
  <rect x="460" y="550" width="120" height="80" fill="#c1782a" />
  <rect x="620" y="550" width="120" height="80" fill="#c1782a" />
  <rect x="300" y="560" width="80" height="160" fill="#5d3415" opacity="0.6" />
  <rect x="820" y="560" width="80" height="160" fill="#5d3415" opacity="0.6" />
  <rect x="290" y="640" width="100" height="60" fill="#c1782a" />
  <rect x="810" y="640" width="100" height="60" fill="#c1782a" />
</svg>
